<svg width="21" height="24" viewBox="0 0 21 24" fill="none" xmlns="http://www.w3.org/2000/svg">
<path d="M1.80597 10.5116C1.80597 6.91535 4.57913 4 8 4C11.4209 4 14.194 6.91535 14.194 10.5116V13.329C14.194 14.4999 14.6829 15.6196 15.5463 16.4265C16.4952 17.3131 15.8566 18.8837 14.5472 18.8837H1.45275C0.143425 18.8837 -0.495153 17.3131 0.45368 16.4265C1.31715 15.6196 1.80597 14.4999 1.80597 13.329V10.5116Z" fill="white"/>
<path d="M7.99982 24C9.67923 24 11.0407 22.7208 11.0407 21.1429C11.0407 21.1161 11.0403 21.0895 11.0395 21.0629C11.0327 20.8324 10.82 20.6648 10.5747 20.6622L5.4371 20.6075C5.19176 20.6048 4.97505 20.7679 4.96282 20.9981C4.96027 21.0461 4.95898 21.0943 4.95898 21.1429C4.95898 22.7208 6.32041 24 7.99982 24Z" fill="white"/>
<g filter="url(#filter0_dd_0_1)">
<circle cx="15" cy="6" r="4" fill="#F47521"/>
</g>
<defs>
<filter id="filter0_dd_0_1" x="9" y="0" width="12" height="13" filterUnits="userSpaceOnUse" color-interpolation-filters="sRGB">
<feFlood flood-opacity="0" result="BackgroundImageFix"/>
<feColorMatrix in="SourceAlpha" type="matrix" values="0 0 0 0 0 0 0 0 0 0 0 0 0 0 0 0 0 0 127 0" result="hardAlpha"/>
<feMorphology radius="2" operator="dilate" in="SourceAlpha" result="effect1_dropShadow_0_1"/>
<feOffset/>
<feColorMatrix type="matrix" values="0 0 0 0 0.968627 0 0 0 0 0.975163 0 0 0 0 0.988235 0 0 0 1 0"/>
<feBlend mode="normal" in2="BackgroundImageFix" result="effect1_dropShadow_0_1"/>
<feColorMatrix in="SourceAlpha" type="matrix" values="0 0 0 0 0 0 0 0 0 0 0 0 0 0 0 0 0 0 127 0" result="hardAlpha"/>
<feOffset dy="1"/>
<feGaussianBlur stdDeviation="1"/>
<feColorMatrix type="matrix" values="0 0 0 0 0 0 0 0 0 0 0 0 0 0 0 0 0 0 0.25 0"/>
<feBlend mode="normal" in2="effect1_dropShadow_0_1" result="effect2_dropShadow_0_1"/>
<feBlend mode="normal" in="SourceGraphic" in2="effect2_dropShadow_0_1" result="shape"/>
</filter>
</defs>
</svg>
