<svg width="16" height="20" viewBox="0 0 16 20" fill="none" xmlns="http://www.w3.org/2000/svg">
<path d="M1.80597 6.51163C1.80597 2.91535 4.57913 0 8 0C11.4209 0 14.194 2.91535 14.194 6.51163V9.32898C14.194 10.4999 14.6829 11.6196 15.5463 12.4265C16.4952 13.3131 15.8566 14.8837 14.5472 14.8837H1.45275C0.143425 14.8837 -0.495153 13.3131 0.45368 12.4265C1.31715 11.6196 1.80597 10.4999 1.80597 9.32898V6.51163Z" fill="white"/>
<path d="M7.99982 20C9.67923 20 11.0407 18.7208 11.0407 17.1429C11.0407 17.1161 11.0403 17.0895 11.0395 17.0629C11.0327 16.8324 10.82 16.6648 10.5747 16.6622L5.4371 16.6075C5.19176 16.6048 4.97505 16.7679 4.96282 16.9981C4.96027 17.0461 4.95898 17.0943 4.95898 17.1429C4.95898 18.7208 6.32041 20 7.99982 20Z" fill="white"/>
</svg>
