<svg width="50" height="50" viewBox="0 0 50 50" fill="none" xmlns="http://www.w3.org/2000/svg">
<circle cx="25" cy="25" r="25" fill="white"/>
<path d="M24.5 25.5C25.7361 25.5 26.9445 25.1334 27.9723 24.4467C29.0001 23.7599 29.8012 22.7838 30.2742 21.6418C30.7473 20.4997 30.8711 19.2431 30.6299 18.0307C30.3888 16.8183 29.7935 15.7046 28.9194 14.8306C28.0453 13.9565 26.9317 13.3612 25.7193 13.1201C24.5069 12.8789 23.2503 13.0027 22.1082 13.4757C20.9662 13.9488 19.9901 14.7499 19.3033 15.7777C18.6166 16.8055 18.25 18.0139 18.25 19.25C18.2517 20.9071 18.9107 22.4958 20.0824 23.6676C21.2542 24.8393 22.8429 25.4983 24.5 25.5ZM24.5 15.0833C25.3241 15.0833 26.1297 15.3277 26.8149 15.7855C27.5001 16.2434 28.0341 16.8941 28.3495 17.6555C28.6649 18.4168 28.7474 19.2546 28.5866 20.0629C28.4258 20.8711 28.029 21.6135 27.4463 22.1963C26.8636 22.779 26.1211 23.1758 25.3129 23.3366C24.5046 23.4974 23.6668 23.4149 22.9055 23.0995C22.1441 22.7841 21.4934 22.2501 21.0355 21.5649C20.5777 20.8797 20.3333 20.0741 20.3333 19.25C20.3333 18.1449 20.7723 17.0851 21.5537 16.3037C22.3351 15.5223 23.3949 15.0833 24.5 15.0833V15.0833Z" fill="#0066FF"/>
<path d="M24.5 27.5834C22.0144 27.5861 19.6315 28.5747 17.8739 30.3323C16.1164 32.0898 15.1278 34.4728 15.125 36.9584C15.125 37.2346 15.2347 37.4996 15.4301 37.6949C15.6254 37.8903 15.8904 38 16.1667 38C16.4429 38 16.7079 37.8903 16.9032 37.6949C17.0986 37.4996 17.2083 37.2346 17.2083 36.9584C17.2083 35.0245 17.9766 33.1698 19.344 31.8024C20.7115 30.4349 22.5661 29.6667 24.5 29.6667C26.4339 29.6667 28.2885 30.4349 29.656 31.8024C31.0234 33.1698 31.7917 35.0245 31.7917 36.9584C31.7917 37.2346 31.9014 37.4996 32.0968 37.6949C32.2921 37.8903 32.5571 38 32.8333 38C33.1096 38 33.3746 37.8903 33.5699 37.6949C33.7653 37.4996 33.875 37.2346 33.875 36.9584C33.8722 34.4728 32.8836 32.0898 31.1261 30.3323C29.3685 28.5747 26.9856 27.5861 24.5 27.5834V27.5834Z" fill="#0066FF"/>
</svg>
